<svg xmlns="http://www.w3.org/2000/svg" viewBox="0 0 600 600" xml:space="preserve" style="enable-background:new 0 0 600 600"><style>.st1,.st2{fill:#fff;stroke:#202124;stroke-width:.75;stroke-miterlimit:10}.st2{fill:none}.st3{fill:#202124}.st4{fill:#5185ec}.st5{fill:#709aee}.st6{fill:#fff}.st7{fill:#f7cd5b}.st8{fill:#040844}.st9{fill:none}.st12{fill:#eb506e}</style><g id="background"><path d="M69.4 395.6c5.5-4.4 173.7-96.9 173.7-96.9L550.4 335 430.9 476.4 69.4 395.6z" style="fill:#bfdbfe" id="table"/><g id="keyboard"><path d="M211.1 373.8c1-1.8 43.4-24.5 43.4-24.5l99.6 18.6-41.8 31-101.2-25.1z" class="st1"/><path class="st2" d="m219.6 368.5 103.2 22.7M232.7 361.1l100.4 22.5M244.4 354.8l101.4 19.3M220.8 376.2l42.6-25.5M247.8 374.7l32.6-20.5M265 378l30.7-20.5M280.3 381.9l32.6-21.7M287.4 392.8l39.7-29.4M299.9 396.1l42.2-30.4"/></g><g id="mouse"><path d="M351.1 394.2c-2.4-3.5 1.5-11.3 6.6-15.3 5.9-4.6 14.5-5.2 22.2-1.4.2 2.3 0 6.2-2.1 9.8-5.9 10.1-23.3 11.9-26.7 6.9z" class="st1"/><path d="M363.9 379.8c4.8-2 9.8-2.7 15-2 .5.1.7-.7.2-.7-5.3-.8-10.4-.1-15.4 2-.4.1-.2.8.2.7z" class="st3"/><path d="M360.8 379.4c4.4.4 9.1.9 11.9 4.8.3.4.9 0 .6-.4-3-4.1-7.8-4.8-12.5-5.1-.5-.1-.5.6 0 .7z" class="st3"/></g><g id="coffee"><path d="m448.1 383.2-34.1 13c-2.4.9-5 .1-6.5-1.9l-9.5-12.8c-2.2-3-1-7.3 2.5-8.6l37-14.3c2.8-1.1 5.9.2 7.1 2.9l6.5 14.2c1.5 2.9.1 6.4-3 7.5z" class="st4"/><path d="M412.5 344.6c-4.8.6-8.6 4.3-8.2 9.3.4 5.4 5.2 8.3 10.1 8.5 1.9.1 1.9-2.9 0-3-3.2-.1-6.4-1.6-7.1-5-.7-3.4 1.8-6.4 5.1-6.8 2-.3 2-3.3.1-3z" class="st3"/><path class="st3" d="M430.3 380h-15.5l-5.2-42.8H436z"/><ellipse cx="422.8" cy="337.6" class="st1" rx="13.2" ry="2.9"/><path d="M418.1 313.7c-2 1.4-4.4 3.2-4.5 5.9-.1 2.2 1.2 2.7 2.5 4.1.3.2.7.4 1 .6.5 2.6.9 5.1 1.4 7.7-.2.8-1 1.5-1.2 2.3-.3.9-.6 1.8-.3 2.7.5 1.8 1.7 2.2 3.3 2.1.5 0 .5-.8 0-.8-.6-1.6-1.2-3.3-1.8-4.9.2-.4.4-.8.7-1.1.2-.6.7-1.2.9-1.8.4-1.2.5-2.4.1-3.7-.3-1-.9-1.8-1.7-2.5-.3-.3-1.2-.6-1.5-1-1.3-.6-1.5-1.8-.7-3.7-1.1-2.6-.4-4.4 2.2-5.3.3-.3 0-.9-.4-.6zM431 318.4c-3 .7-6.8 3.8-5.7 7.4.2.6.3.8.8 1.3.5.4 1 .8 1.4 1.2.8 2.3.5 4.2-.9 5.7-1.1 2.2-2.4 3.3-1.5 5.8.2.4.9.3.7-.2-.5-1.4.7-4 1.4-5.2.4-.7 1.1-1.4 1.4-2.2.3-.8.6-1.7.5-2.5-.2-1-.6-1.1-1.1-1.9-1.2-1.9-2.4-3.4-1.1-5.6.9-1.6 2.4-2.6 4.3-3 .5-.1.3-.9-.2-.8z" class="st3"/></g><g id="plant"><path d="M506.4 348c-2.8 1.4-11.1 5.2-21.7 3.4-8.9-1.5-14.7-6-17.2-8.2v-39.1l38.9 4.8V348z" class="st1"/><ellipse cx="486.9" cy="305.6" class="st3" rx="20.6" ry="9.6"/><path d="M485.6 305.4c-4-2.9-.7-9.2-.1-12.9.5-2.9.6-5.9-.3-8.7-1.9-6.1-11.9-12.2-7.6-19.1 1-1.6-1.6-3.1-2.6-1.5-5.2 8.3 4.5 13.9 7 20.9 2.7 7.5-5.8 18.3 2 23.9 1.6 1.1 3.1-1.5 1.6-2.6z" class="st5"/><path d="M485.7 292.5c.9-5.6 3.6-10.7 8.4-13.9 2.9-2 6.3-3.1 8.1-6.4 4.2-7.7-1.9-16.4-1.2-24.4.2-1.9-2.8-1.9-3 0-.9 9.5 7.7 20.4-2.9 26.7-6.6 3.9-11 9.5-12.2 17.2-.4 1.8 2.4 2.7 2.8.8z" class="st5"/><path d="M487.4 244.4c-1.5 4.2-4.4 10.2-2 14.6 1 1.7 2.7 2.8 4 4.2 2.9 3.2 4 7.1 3.7 11.4-.2 1.9 2.8 1.9 3 0 .4-4.3-.6-8.6-3.3-12.1-1.2-1.5-2.9-2.6-4-4.2-2.5-3.5.2-9.4 1.5-13.2.7-1.7-2.2-2.5-2.9-.7zM469.2 268.5c-.3.9-1.3 4.4.5 7.8 2 3.9 6.9 6.1 12 5.2-.3-1.6-1.6-6.3-5.9-9.8-2.5-2-5-2.8-6.6-3.2zM475.5 265.3c-.8-.7-3.6-3.4-4-7.7-.6-6.6 4.9-10.7 5.2-10.9.8 1.5 1.7 3.7 2 6.6.6 6-2.2 10.5-3.2 12z" class="st5"/><path d="M486.9 250.8c-.6-.5-5.1-3.8-5.5-9.7-.3-4.5 1.9-7.7 2.6-8.5 1 1.1 2.3 2.7 3.2 4.8 2.6 6.1.4 11.9-.3 13.4zM491.9 263.8c-.3-.4-3.5-5.4-1.3-10.6 1-2.4 2.8-3.7 3.8-4.4.5.9 1.9 3.7 1.5 7.4-.6 4.4-3.3 7-4 7.6zM489.6 280.5c-1-.6-4.3-3-5.7-7.6-1.2-3.9-.4-7.1 0-8.3 1 .9 2.2 2 3.2 3.6 3.2 4.9 2.7 10.3 2.5 12.3zM483.6 297.1c-.7-1 1.9-4.2 3.6-5.8 3.8-3.5 8.4-4.1 10.3-4.2-.3 1.1-.9 2.5-2 4-3.7 5.3-10.9 7.4-11.9 6z" class="st5"/></g><g id="card"><path d="M236 315.8c11.3 2.4 23.9 3.4 35.2 5.8l-27 15.5c-12.7-2.5-25.5-5.1-38.2-7.6 10.4-5 19.5-8.7 30-13.7z" class="st5"/><path d="M238 318.2c8.3 1.8 17.6 2.5 25.8 4.3L244 333.8c-9.4-1.9-18.7-3.7-28.1-5.6 7.8-3.7 14.4-6.4 22.1-10z" class="st6"/></g><g id="phone"><path d="m400.5 447.6-54.4-11.5c-2.5-.5-3-3.9-.8-5.1l28.8-16.7c.6-.3 1.3-.5 2-.3l54.4 11.5c2.5.5 3 3.9.8 5.1l-28.8 16.7c-.6.3-1.4.4-2 .3z" class="st6"/><path d="m399.3 440.7-42.9-9c-1.6-.3-1.9-2.4-.5-3.2l19.8-11.4c.4-.2.8-.3 1.2-.2l44.2 8.9c1.6.3 1.9 2.4.5 3.2l-21 11.5c-.4.2-.9.3-1.3.2z" class="st5"/></g></g><g id="girl"><g id="hand_left_1_"><path d="M226.1 371.1c.6-.9 1.5-2.3 2.7-4 3.9-5.8 4.4-6.7 6-8.9 2.6-3.5 3.9-5.3 6-6.7 1.3-.9 4.8-3.3 9.5-3.2 1.4 0 3.3.1 5 1.4 2.4 1.8 3.8 5.4 2.6 7.5-.4.7-1.3 1.2-3.2 2.2-2.2 1.2-3 1.2-4.6 2.1-.9.5-2.2 1.4-3.5 2.8 2-1.2 4.3-.8 5.3.6.7 1 .8 2.5.3 3.5-.6 1.1-1.7 1.4-2.8 1.8-2.5.9 1.2-.1-6.4 3.2-5.5 2.4-8.3 3.6-10.2 3.7-1.5.1-5.9.4-7.2-2-.7-1.4.1-3.2.5-4z" class="st7"/><path d="M191.3 381.1c1.2 0 2.9 0 4.9-.2 5.8-.5 9.7-2.1 15.5-4.3 3.2-1.2 8.3-3.1 14.8-5.4.5 0 2.7-.1 4.6 1.5 2.3 1.9 2.3 4.7 2.3 5.1-2.4 1.2-6.2 3.1-10.6 5.8-6.1 3.6-9.6 6.3-16.6 11.1-3.4 2.3-8.4 5.7-14.7 9.7-.2-7.7-.2-15.5-.2-23.3z" class="st8"/><path d="M191.3 381.1c1.6.5 3.3.2 4.9-.2 10.3-2.3 20.3-5.6 29.9-9.8M203.9 396.1c9.3-6 18.6-12 27.9-18.1M226.5 371.2c3.3-.6 6.7 2.6 6.3 5.9M249.9 364c1.2-1 3.5-.1 3.7 1.5.1 1.1-.5 2.1-1.4 2.9-.9.8-2 1.4-3.2 2-5.2 2.7-10.4 5.1-15.7 7.4M226.8 370.1c2.9-4.4 5.9-8.7 8.8-13.1.9-1.4 1.9-2.8 3.1-3.9 3.1-2.9 7.5-4 11.7-4.9" class="st9"/><path d="M246.9 364.5c2.8-3 6.4-4.9 10.5-5.3.5-.1.5-.8 0-.8-4.3.5-8.1 2.4-11.1 5.6-.3.3.3.8.6.5zM245.4 358.9c3.4-2.4 7.2-3.7 11.4-3.8.5 0 .5-.8 0-.8-4.3.1-8.3 1.4-11.7 3.9-.5.3-.1 1 .3.7zM240.8 357.7c3.4-3.6 7.8-5.4 12.7-5.2.5 0 .5-.7 0-.8-5.1-.2-9.8 1.7-13.3 5.4-.2.4.3 1 .6.6zM244.3 352.2c3.5-1.8 7.2-2.5 11.1-2.2.5 0 .5-.7 0-.8-4-.3-7.9.5-11.5 2.3-.4.2-.1.9.4.7z" class="st3"/></g><g id="torso_1_"><path d="M136 334c-8.4 2.3-14.2 5.5-17.7 7.8-3.2 2.1-5.4 4.1-6.3 7-.8 2.7-.1 5.1.4 7.1 1.9 7.1-.5 2.8 2.6 17 2.5 11.7 5.8 22.7 6.9 26.2 10.7 35.6 11.6 40.5 12.1 44.7 1.4 10.7 1.1 19.5.6 25.3 3.1 2.4 7.5 5.5 13.2 8.3 4.4 2.3 14.9 7.1 29.4 8.9 11.6 1.4 21.4.2 28.2-1.2.3-9.1.5-21.4.4-36.2-.1-8.9-.2-16.7-.7-27.2-.8-16.1-2.1-27.1-3.3-37.8-1.6-14-2.5-17.6-3.5-20.8-3-9.7-7.4-17.1-10.8-21.9-4.9-1.6-10.3-3.2-16.3-4.4-13.4-2.7-25.4-3.2-35.2-2.8z" class="st8"/><path d="M138.2 334.7c16.6-1.1 33.5 1.1 49.3 6.5M192.6 349.6c8.7 14.7 8.7 32.7 10.7 49.7 3 28 3 56 1.5 83.6" class="st9"/><path d="M111.6 348.8c1.2 34.8 17.5 66.6 23 100.7.1.5.8.3.7-.2-5.4-34-21.7-65.7-22.9-100.5 0-.5-.8-.5-.8 0zM134.4 469.5c18.5 14 41.7 20.1 64.7 16.9.5-.1.3-.8-.2-.7-22.8 3.1-45.8-3-64.1-16.8-.4-.4-.8.3-.4.6z" class="st3"/></g><g id="hand_right_1_"><path d="M274.9 413.3c1.7-1.4 2.8-2.7 3.5-3.7 1.4-1.9 2.6-4.1 2.9-4.7 1.3-2.6 1.4-3.5 2.6-4.3 1.2-.8 2.6-.8 3.5-.7 1-1.1 2.1-2.3 3.4-3.4 2.7-2.4 5.5-4 7.8-5.2 1.2.4 4.2 1.7 6.4 4.7 1.7 2.3 2.3 4.7 2.5 6-.9.5-2.1 1.2-3.5 2.1-2.5 1.6-3.8 2.5-5.2 3.8-2.6 2.4-2.1 3.4-4.8 6-1.4 1.3-2.5 2-4.1 3-1.9 1.2-4.7 2.7-8.3 4-2.6 1.5-5.8.7-7.2-1.5-1.1-1.8-.9-4.3.5-6.1z" class="st7"/><path d="M188.7 342.2c-2.3 3.2-4.7 6.9-7 11-5.7 10.5-8.7 20.5-10.2 28.5 1.4 4.2 3.4 10.1 6.1 17.1 3.1 8 3 6.8 12.5 27.8 0 0 5 11.1 12.9 20.7.8.9 2.4 2.9 5.2 3.9 3.5 1.3 6.8.5 9.9-.4 11.3-3.1 15.8-5.1 15.8-5.1 4.9-2.2 11.9-5.2 21.9-9.5 8.9-4.9 17.9-9.7 26.8-14.6-.3-1.2-1.1-3.2-2.8-5.2-1.5-1.8-3.2-2.8-4.3-3.4-3.9 1.1-7.9 2.1-12.1 3-14.1 3.2-27.4 4.8-39.4 5.5-2.6-9.6-5-17.8-7-24.3-1.7-5.6-4.2-12.7-9.1-26.8-4.2-11.9-6.6-18.7-13.4-24.4-2.2-1.8-4.3-3-5.8-3.8z" class="st8"/><path d="M188.7 342.2c8.3 3.5 12.8 12.5 16.3 20.8 7.7 18.8 13.8 38.2 18.2 58M223.8 421.7c17.1-1.2 34.1-3.9 50.8-8.1" class="st9"/><path d="M274.8 413.7c3.4.8 6.1 3.6 6.4 7.2 0 .5.8.5.8 0-.4-3.8-3.2-7-7-7.9-.5-.1-.7.6-.2.7z" class="st3"/><path d="M171.5 381.7c5.7 17.7 13.1 34.9 22 51.2 2.7 5.1 5.7 10.1 9.6 14.3 1.5 1.6 3.2 3.2 5.2 3.9 3.1 1.2 6.6.5 9.9-.4 22.1-5.8 42.3-17.1 62.2-28.3M275.6 413c2.7-2.8 4.9-6 6.5-9.6.6-1.4 1.5-3.2 3-3.3.8-.1 1.8.3 2.4-.3M281.9 419.9c2.1.5 4.2-.7 6.1-1.9 3.2-2 6.4-4 8.6-7 .8-1.1 1.4-2.2 2.2-3.2 1.7-2 4.1-3.2 6.4-4.4" class="st9"/><path d="M286.2 403.1c2.9-5.2 7.2-9.1 12.6-11.6.4-.2.1-.8-.4-.6-5.5 2.5-9.9 6.6-12.9 11.9-.2.4.4.8.7.3zM290.4 402.9c2.9-3.5 6.6-6 10.8-7.3.5-.1.3-.9-.2-.7-4.4 1.4-8.2 4-11.2 7.5-.2.4.3.9.6.5zM294.6 403.9c3.3-2.8 6.9-4.7 11.1-5.9.5-.1.3-.9-.2-.7-4.2 1.2-8 3.3-11.4 6.1-.4.2.1.8.5.5z" class="st3"/></g><g id="head_1_"><path d="M172.7 306.2c0 .4-.1 2.1-1.2 4.3-1.5 2.8-2.8 2.8-4.5 5.1-2.7 3.7-.8 6.4-3.1 8.4-2 1.7-5.8 1.7-8 .2-4.7-3.2-4.4-14.9 1.6-20.3 4.3-3.9 11.9-4.8 14.1-2.1 1.2 1.3 1.1 3.9 1.1 4.4z" class="st4"/><path d="M172.7 306.2c1 .8 2.4 2.3 3.6 4.5.6 1.1 1.7 3.8 1.5 7.3-.2 2.6-1 4.4-1.5 5.5-.8 1.7-2.3 4.9-5.8 6.8-2.2 1.2-4.3 1.5-6 1.4-.4 1.1-.9 2.2-1.3 3.3.6.6 1.2 1.1 1.8 1.7-3.4-.7-6.7-1.3-10.1-2 4.7-5 6.7-7 6.9-6.8.1.1-.5 1.1-.6 1 0 0 1.6-3.3 3.2-7.3 1.7-4.1 1.2-4.1 2.1-5.4 1.8-2.7 3.5-3 4.9-5.7 1-1.7 1.2-3.2 1.3-4.3z" class="st7"/><path d="M172.7 306.2c4 3.3 5.9 9 4.7 14.1-.5 1.9-1.3 3.7-2.3 5.4-.6 1-1.2 1.9-1.9 2.7-2.6 2.7-6.6 3.2-10.3 3.5" class="st9"/><path d="M164.4 302.4c1.4.1 2.7.3 4 .7 1.9.6 4 1.8 4.3 3.8.2 1.3-.4 2.7-1.3 3.7s-1.9 1.9-2.9 2.8c-2.7 2.8-3.9 6.8-4.8 10.6" class="st9"/><path d="M174.6 311.9c-.3-.4-.5-.8-.6-1.2l-.5.5c.4.1.7.5.6 1 0 .5.7.5.8 0 .1-.8-.4-1.5-1.2-1.7-.3-.1-.5.2-.5.5.2.6.4 1.1.8 1.5.4.3.9-.2.6-.6z" class="st3"/><path d="M164.5 331.9c-.3 1.1-.7 2.1-1 3.2M163.2 335c.5.4.9.8 1.4 1.1.2.2.4.3.4.6s-.4.4-.5.1" class="st9"/><path d="M171.9 323.2c-2.9 3.9-7.7 2.3-12.8 8.1-3.7 4.2-2.6 6.7-5.6 8.6-5.2 3.2-14.7-.7-20.1-6.6-6.5-7.1-8.8-18.9-4.4-23.4 2.7-2.8 6.2-1.5 8.2-4.6 2.5-4-1.9-8.3 0-11.5 2.7-4.6 17.6-4.3 27 3.8 8 6.9 12 19.7 7.7 25.6z" class="st4"/></g><g id="chair"><path d="M38 334.1c-6.5 6.8-6.5 16.6-6.4 28.5.1 27.9 13 48.9 15.7 53.5C59.4 436.7 70.9 473 68 542.3c10.3 8.6 28.5 21.3 54.2 27.8 47.1 11.9 86-5.6 97.7-11.4-5.2-27.9-8.2-50.8-10-66.3-4.4-38.5-8-63-19.3-95.6-8.3-23.9-14.8-33.7-24.1-41-9.2-7.3-16.9-8.8-44-14.2-65.8-13.1-76.8-15.5-84.5-7.5z" style="fill:#fecdd3"/><path d="M148.7 359c-7.9 31.6 10.5 60.5 21.4 88.8 11.8 30.5 17.5 63.2 17.1 95.9 0 .5.7.5.8 0 .4-31-4.7-61.8-15.2-91-10.9-30-31.7-60.3-23.4-93.5.2-.5-.6-.7-.7-.2z" class="st6"/></g></g><g id="guy"><g id="tabs"><path d="M245.1 130.3s-3.6 152.5-3.6 153.6c.1 1.1 183.5 25.9 183.5 25.9l11-169.4-190.9-10.1z" style="fill:#efefef"/><path class="st4" d="M185.7 196.2h71.5l-.7-31.6-70.8-.4z"/><path class="st1" d="M189.1 167.5h63.3v5.6h-63.3zM189.1 178.1h46.4v13.3h-46.4z"/><path class="st1" d="M194.5 182.1h36.1v.5h-36.1zM196.3 186.2H227v.2h-30.7z"/><path d="m247.8 132.3-.7 10.1L432 153.3l1.2-10.8-185.4-10.2z" class="st5"/><path d="m260.3 151.5-2 58.5 100.1 8.4c1.5-20.8 1.7-42.2 3.1-63.1-34.1-1.9-67-1.8-101.2-3.8z" class="st1"/></g><g id="hand_right"><path d="M219.6 205.8c-.1 2.1 1.7 3.7 4.5 6.1 3.5 3.1 6.3 4.1 12 7.3 2.9 1.6 5.2 3 6.8 4.1.8-.3 2.6-1.1 4-3.1 1.7-2.3 1.7-4.7 1.7-5.5-.9-1-2.3-2.7-3.9-5-2.9-4.2-3.2-5.8-5.2-6.7-2.3-1-3.4.5-6.3-.7-2.2-.9-2.2-2.1-3.8-2.6-3.6-1.2-9.6 2.3-9.8 6.1z" class="st7"/><path d="M305 209.2c-1 1.2-2.4 2.9-3.8 5.3-3.2 5.3-4.3 10-4.6 11.2-1.2 4.7-5 12.9-15.3 28.2-5.6-6.3-11.4-12.8-17.1-19.8-5.5-6.6-10.6-13.1-15.5-19.4-.8.3-2 .7-3.1 1.8-2.7 2.5-2.7 6.1-2.6 6.8 1.3 3 3.1 7.1 5.4 12.1 6.2 13.5 6.3 11.9 12.4 24.7 3.1 6.5 4.7 10.2 8.6 14.6 3.8 4.2 6.7 5.7 9 6.5 3.4 1.1 6.4.9 8.5.8 2.1-.2 5.8-.7 11.4-3.4 4.3-2.1 7.8-4.6 13.1-9.1 4.2-3.6 9.6-8.6 15.7-15.1.5-.9 8.1-16.1-.6-30.6-7.1-11.8-19.6-14.2-21.5-14.6z" class="st12"/><path d="M304.1 209.8c-2.5 3.2-3.9 7.1-5.4 10.8-4.6 11.6-10.3 22.8-17.1 33.3M248.6 214.7c10.4 13.5 21.3 26.6 32.7 39.2M247.8 214.9c-2.7 1.4-4.7 4.1-5.3 7.1" class="st9"/><path d="M244.2 226.3c6.2 13.8 13 27.4 20.3 40.7 2.6 4.8 5.5 9.7 10.2 12.6 4.8 2.9 10.9 3 16.4 1.7 9.9-2.5 18-9.5 25.4-16.5 3.6-3.4 7.1-6.8 10.5-10.3M248 215.3c-2.3-4.4-5.1-8.6-8.5-12.2-.2-.2-.5-.5-.8-.6-.5-.1-1.1.4-1.2.9-.1.5 0 1.1.2 1.6M241.6 221.8c-4.8-2.2-9.5-4.7-14-7.5-1.2-.7-2.4-1.5-3.4-2.4-1.9-1.7-3.2-3.9-4.5-6.1" class="st9"/><path d="M221.2 204.6c2.2 2.6 4.8 4.7 7.8 6.2.4.2.8-.4.4-.6-2.9-1.6-5.5-3.6-7.7-6.1-.3-.4-.8.1-.5.5zM223.5 202.6c2 2.2 4.2 4.2 6.6 6 .4.3.8-.4.4-.6-2.4-1.7-4.5-3.7-6.4-5.8-.4-.5-1 0-.6.4zM225.8 200.9c2 2.3 4.4 4.1 7.3 5.2.5.2.6-.6.2-.7-2.7-1.1-5.1-2.8-6.9-5-.4-.4-.9.1-.6.5zM229.2 200c1.1 1.1 2.4 2 3.9 2.7.4.2.8-.5.4-.6-1.4-.6-2.6-1.5-3.7-2.5-.5-.5-1 0-.6.4z" class="st3"/></g><g id="torso"><path d="M305 209.2c.1 2.2.3 5.3.9 9 .4 2.4 1.4 8.8 6.4 22.2 1 2.8 3.1 7.9 7.3 18.2 4.3 10.4 4.3 10.4 5.2 12.6 2.1 5.6 4.9 13.7 7.1 24.2 18.6 2.3 37.2 4.7 55.8 7 0-2 0-5 .1-8.7.1-10.7.4-15.5.4-19.8.1-8.6-.7-15-1.6-23.2-2.3-19-6.7-36-10.3-47.6-4.9-1.2-10.8-2.3-17.7-2.9-3.7-.3-10.9-.7-19.9.2-8 .9-19.9 3-33.7 8.8z" class="st12"/><path d="M305 209.2c22.2-9.7 47.7-11.9 71.3-6" class="st9"/><path d="M306.2 220.9c5.3 25.2 19.5 47.4 25.2 72.5.1.5.8.3.7-.2-5.8-25.1-19.9-47.3-25.2-72.5-.1-.5-.8-.3-.7.2z" class="st6"/><path d="M377.6 209c9 28.6 12.4 58.9 9.9 88.7" class="st9"/></g><g id="hand_left"><path d="M362 318.9c-2.4-.7-3-2.5-5.1-2.3-1.7.2-2.8 1.4-3.6 2.4-1.9 2.2-1.8 3.7-3.5 7.9-1.9 4.7-2.9 4.7-2.7 6.3.6 3.8 6.6 5.9 7.9 6.4 1.8.6 3.4.9 4.5 1 .7-1.7 1.6-3.1 2.3-4 1.1-1.5 2.1-2.8 3.8-3.8 1.6-.9 2.3-.7 3.2-1.7.5-.6.7-1.1 1.3-3.1.9-3 1.3-4.5 1.5-5.8.3-2.7.5-4.1-.1-4.7-1.7-1.4-5.2 2.6-9.5 1.4z" class="st7"/><path d="M350.7 222.1c.4-2.4 1.6-7.2 5.6-11.5 7.6-8.3 18.6-7.5 20.1-7.4 1 .9 2.4 2.2 3.9 4 3.3 4 4.8 7.8 5.9 10.6 3.9 10 5.8 14.9 6.8 18 .5 1.5 3.1 9.7 5.5 21 1.4 6.7 1.8 10.1 1.1 14.3-.6 3.7-1.8 6.3-3.5 9.5-5.3 10.3-10.2 16.8-14.4 23.2-2.6 4-6.2 9.9-9.9 17.5-.6-.6-2.1-2-4.5-2.7-2.4-.6-4.4-.1-5.2.1 2.1-7.4 3.9-13.3 5.1-17.3 2.3-7.5 3.7-11.5 5.7-18.5 1.5-5.2 2.5-9.4 3.2-12.1-.8-2.5-1.9-5.8-3.5-9.8-2.3-5.7-4.6-10.1-7.6-15.5-3.5-5.8-8.2-13.9-14.3-23.4z" class="st12"/><path d="M350.4 223.3c9.8 12.8 16.7 27.2 23.2 41.8 1.2 2.7 2.5 4.6 1.9 7.7-.3 1.8-1.2 3.9-1.7 5.7-1.4 4.4-2.7 8.8-4.1 13.2-2.7 8.8-5.4 17.7-8.1 26.5-.1.5.6.7.7.2 2.9-9.5 5.8-18.9 8.7-28.4 1.5-5 3.1-10.1 4.6-15.1.7-2.5 1.2-3.7.4-6.1-2.8-7.8-6.9-15.6-10.7-23-4.1-8-8.8-15.7-14.2-22.9-.3-.3-1 0-.7.4z" class="st6"/><path d="M378.7 204.9c11.1 15.8 15.7 35.1 20.1 53.9.5 2.2 1 4.4 1.1 6.6.2 4.7-1.3 9.4-3.3 13.7-6.7 14.7-18 26.8-25 41.4" class="st9"/><path d="M362.5 319.3c3.1-.6 6.4-.6 8.5 2.1.3.4.8-.2.5-.5-2.2-2.9-5.9-2.9-9.2-2.3-.5 0-.3.8.2.7z" class="st3"/><path d="M362 318.9c-1.1-.6-2.2-1.1-3.3-1.7-.6-.3-1.2-.5-1.8-.6-1.6-.2-3.2.9-3.6 2.4M371.7 321.4c-.5 2.9-1.2 5.7-2.2 8.4-.2.5-.4.9-.7 1.3-.5.5-1.1.7-1.7.9-4.4 1.8-6.8 6.5-8.7 10.9" class="st9"/><path d="M354.7 322c-4.7 1.9-6.5 6.6-8 11.1-.2.5.6.7.7.2 1.4-4.2 3.1-8.7 7.5-10.5.4-.3.2-1-.2-.8zM356 325.3c-3.4 2.6-5.3 6.4-5.4 10.7 0 .5.7.5.8 0 .1-4 1.9-7.6 5.1-10 .3-.3-.1-1-.5-.7zM359.3 327.1c-3 2.4-4.8 5.7-5.2 9.5 0 .5.7.5.8 0 .4-3.6 2.1-6.7 5-9 .3-.3-.3-.8-.6-.5zM362.2 329.9c-2.8 2.5-4.8 5.6-5.9 9.2-.1.5.6.7.7.2 1.1-3.5 3-6.5 5.7-8.9.4-.3-.2-.8-.5-.5z" class="st3"/></g><g id="head"><path d="M335.5 211.8c0 .5.1 1 .2 1.3-.1.1-.6 1.2-.2 1.8.4.4 1.1.3 2.1.2.9-.1 2.1-.3 3.4-1.2.8-.5 1.4-1.3 2.7-2.9.5-.6.7-.9.8-1.3.2-1-.4-2.2-1.3-2.8-.9-.5-1.7-.2-2.6 0-2.1.7-5 2.4-5.1 4.9z" class="st7"/><path d="M335.3 212.5c.3.4.6.8 1 1.1.4.3.9-.2.5-.5-.3-.3-.6-.6-.9-1-.2-.3-.9 0-.6.4z" class="st3"/><path d="M335.6 213.1c-.5.4-.5 1.2-.2 1.8s1.1.8 1.7.8 1.3-.3 1.9-.6c2.3-1.2 4.2-3.1 5.4-5.4" class="st9"/><path d="M320.4 197.1c-.1.6-.1 1.4.1 2.8.3 1.9.6 4.1 2.1 6.5.7 1.1 2.3 3.7 5.7 5 3.5 1.4 6.7.6 7.7.3 2.6-.7 4.2-2.1 5.4-3.1 1.2-1 2.8-2.5 3.9-4.9.5-1.1.6-2.1.8-2.9.5-3 0-5.3-.3-6.9-.4-2-.6-3.1-1.3-4.1-1.9-3.1-5.9-3.7-7-3.9-7.7-1.3-13.7 5-15.3 7.2-.5.7-1.5 2-1.8 4z" class="st7"/><ellipse cx="333.6" cy="197.6" class="st3" rx="1" ry="1.4"/><path d="M332.3 193.3c1.4-.7 3-.2 3.7 1.2.2.4.9 0 .6-.4-.9-1.8-3-2.4-4.7-1.5-.4.3 0 .9.4.7z" class="st3"/><path d="M328.1 177.6c-.9-.3-6.1-1.9-10.9.9-4.8 2.8-6 7.9-6.2 9.1-.3 1.6-.7 3.8.5 6.1 1.6 2.9 4.7 3.6 5.2 3.7 2.3.5 4.2-.2 5.4-.7 2.8-1.1 2.8-2.3 6.4-4.3 1.6-.9 3.2-1.8 5.4-2.1 1.8-.3 3.7-.5 5.3.5 1.3.8 1.6 1.9 3.9 3.3.6.4 1.3.7 1.9.5.7-.2 1-1 1.2-1.2.1-.8.3-2.8-.7-4.8-.8-1.6-2-2.4-3-3.1-2-1.4-3.7-1.8-4.7-2.1-5.5-1.9-5.4-4.4-9.7-5.8z" class="st3"/><path d="M320.5 198.8c.1 3.8 1.5 7.6 4.2 10.2 2.7 2.6 6.8 3.9 10.4 3 1-.3 1.9-.7 2.8-1.1 4.3-2.2 8.2-6.2 8.1-11" class="st7"/><path d="M314.8 195.5c-5.4-3.2-4-10.8-.2-14.6 4.5-4.6 10.5-4 15.6-1.1 2.2 1.2 4.2 2.6 6.6 3.6 5.3 2.3 9.3 4 8.9 10.9 0 .5.7.5.8 0 .3-5.9-1.6-8.4-7-10.6-5.7-2.3-11.3-7.5-17.8-6.9-8.6.8-16.3 13.9-7.2 19.4.4.2.8-.4.3-.7z" class="st3"/><path d="M314.7 195.8c3.6 3.1 7.5 1.6 11-.9 1.8-1.2 3.3-3.1 5.4-3.9 1.6-.4 3.1-.8 4.7-1.2 2.9-.1 5 1 6.4 3.4 1.1 1.1 1 1.8 2.8 1.6.5 0 .5-.8 0-.8-1.7.2-3.2-3.1-4.6-3.9-1.6-.9-3.6-1.2-5.5-1.1-6.5.5-13.1 11.8-19.7 6.2-.4-.2-.9.3-.5.6z" class="st3"/><path d="M327.8 196.5c-.6 3.9-1 8.2 2.4 10.8.4.3.8-.4.4-.6-3.1-2.4-2.6-6.5-2.1-10 .1-.5-.7-.7-.7-.2z" class="st3"/></g></g></svg>